<svg width="46" height="14" viewBox="0 0 46 14" fill="none" xmlns="http://www.w3.org/2000/svg">
<path fill-rule="evenodd" clip-rule="evenodd" d="M7.95145 0.0392309L43.7082 0.00162299C44.2511 0.00207277 44.4567 0.00105481 44.4567 0.00105481C44.4567 0.00105481 46.0002 0.00161938 45.9907 1.99452L46.0002 13.9553L45.3983 13.9557C45.3983 13.9557 44.4949 13.958 43.9523 13.9567L8.19558 13.9943C8.05001 13.9965 7.90543 13.9729 7.77039 13.9248C7.63535 13.8768 7.51258 13.8053 7.40936 13.7147L0.325129 7.76567C0.120309 7.58435 0.00520907 7.33873 0.00503488 7.08259C0.00486069 6.82644 0.119627 6.58066 0.3242 6.39906L7.17267 0.323048C7.27428 0.232018 7.39561 0.159977 7.5294 0.111217C7.6632 0.0624576 7.80673 0.0379761 7.95145 0.0392309Z" fill="#2C3567"/>
<path d="M7.31054 8.85619V7.92019L10.0145 4.28019H11.2225V7.88019H11.9585V8.85619H11.2225V9.99219H10.0865V8.85619H7.31054ZM10.1745 5.60019L8.46254 7.88019H10.1745V5.60019ZM14.6253 4.12819C15.0093 4.12819 15.3373 4.19485 15.6093 4.32819C15.8866 4.46152 16.0946 4.64552 16.2333 4.88019C16.3773 5.11485 16.4493 5.37619 16.4493 5.66419C16.4493 6.02685 16.3506 6.32552 16.1533 6.56019C15.956 6.78952 15.6946 6.93085 15.3693 6.98419V7.02419C16.1586 7.25885 16.5533 7.72285 16.5533 8.41619C16.5533 8.90152 16.3906 9.29619 16.0653 9.60019C15.74 9.89885 15.2813 10.0482 14.6893 10.0482C14.06 10.0482 13.5586 9.89352 13.1853 9.58419C12.812 9.26952 12.604 8.79752 12.5613 8.16819H13.6653C13.692 8.45619 13.7853 8.68552 13.9453 8.85619C14.1106 9.02152 14.3426 9.10419 14.6413 9.10419C14.8973 9.10419 15.0973 9.03485 15.2413 8.89619C15.3853 8.75219 15.4573 8.56552 15.4573 8.33619C15.4573 8.06419 15.3533 7.85619 15.1453 7.71219C14.9373 7.56819 14.6306 7.49619 14.2253 7.49619H13.9933V6.57619H14.2253C14.972 6.58685 15.3453 6.32819 15.3453 5.80019C15.3453 5.57085 15.2786 5.39219 15.1453 5.26419C15.012 5.13085 14.8306 5.06419 14.6013 5.06419C14.3613 5.06419 14.164 5.14152 14.0093 5.29619C13.8546 5.44552 13.7666 5.65619 13.7453 5.92819H12.6413C12.6733 5.35219 12.86 4.90952 13.2013 4.60019C13.5426 4.28552 14.0173 4.12819 14.6253 4.12819ZM18.5023 4.25619C18.8757 4.25619 19.1797 4.37085 19.4143 4.60019C19.6543 4.82419 19.7743 5.13619 19.7743 5.53619C19.7743 5.93619 19.6543 6.25085 19.4143 6.48019C19.1797 6.70419 18.8757 6.81619 18.5023 6.81619C18.129 6.81619 17.8223 6.70419 17.5823 6.48019C17.3477 6.25085 17.2303 5.93619 17.2303 5.53619C17.2303 5.13619 17.3477 4.82419 17.5823 4.60019C17.8223 4.37085 18.129 4.25619 18.5023 4.25619ZM22.1183 4.32819L18.9743 9.99219H17.8863L21.0303 4.32819H22.1183ZM17.9903 5.53619C17.9903 5.71752 18.0357 5.86419 18.1263 5.97619C18.217 6.08285 18.3397 6.13619 18.4943 6.13619C18.649 6.13619 18.7743 6.08285 18.8703 5.97619C18.9663 5.86419 19.0143 5.71752 19.0143 5.53619C19.0143 5.35485 18.9663 5.21085 18.8703 5.10419C18.7743 4.99219 18.649 4.93619 18.4943 4.93619C18.3397 4.93619 18.217 4.99219 18.1263 5.10419C18.0357 5.21085 17.9903 5.35485 17.9903 5.53619ZM21.5103 7.50419C21.8837 7.50419 22.1877 7.61885 22.4223 7.84819C22.657 8.07219 22.7743 8.38419 22.7743 8.78419C22.7743 9.18419 22.657 9.49885 22.4223 9.72819C22.1877 9.95219 21.8837 10.0642 21.5103 10.0642C21.137 10.0642 20.8303 9.95219 20.5903 9.72819C20.3557 9.49885 20.2383 9.18419 20.2383 8.78419C20.2383 8.38419 20.3557 8.07219 20.5903 7.84819C20.8303 7.61885 21.137 7.50419 21.5103 7.50419ZM20.9983 8.78419C20.9983 8.97085 21.0437 9.12019 21.1343 9.23219C21.225 9.33885 21.3477 9.39219 21.5023 9.39219C21.657 9.39219 21.7823 9.33885 21.8783 9.23219C21.9743 9.12019 22.0223 8.97085 22.0223 8.78419C22.0223 8.60285 21.9743 8.45619 21.8783 8.34419C21.7823 8.23219 21.657 8.17619 21.5023 8.17619C21.3477 8.17619 21.225 8.23219 21.1343 8.34419C21.0437 8.45085 20.9983 8.59752 20.9983 8.78419ZM27.9007 4.26419C28.4287 4.26419 28.9061 4.38685 29.3327 4.63219C29.7647 4.87752 30.1034 5.22152 30.3487 5.66419C30.5994 6.10152 30.7247 6.59752 30.7247 7.15219C30.7247 7.70685 30.5994 8.20552 30.3487 8.64819C30.1034 9.09085 29.7647 9.43485 29.3327 9.68019C28.9061 9.92552 28.4287 10.0482 27.9007 10.0482C27.3727 10.0482 26.8927 9.92552 26.4607 9.68019C26.0341 9.43485 25.6954 9.09085 25.4447 8.64819C25.1994 8.20552 25.0767 7.70685 25.0767 7.15219C25.0767 6.59752 25.1994 6.10152 25.4447 5.66419C25.6954 5.22152 26.0341 4.87752 26.4607 4.63219C26.8927 4.38685 27.3727 4.26419 27.9007 4.26419ZM27.9007 5.30419C27.5701 5.30419 27.2794 5.37885 27.0287 5.52819C26.7781 5.67752 26.5807 5.89352 26.4367 6.17619C26.2981 6.45352 26.2287 6.77885 26.2287 7.15219C26.2287 7.52552 26.2981 7.85352 26.4367 8.13619C26.5807 8.41352 26.7781 8.62685 27.0287 8.77619C27.2794 8.92552 27.5701 9.00019 27.9007 9.00019C28.2314 9.00019 28.5221 8.92552 28.7727 8.77619C29.0234 8.62685 29.2181 8.41352 29.3567 8.13619C29.5007 7.85352 29.5727 7.52552 29.5727 7.15219C29.5727 6.77885 29.5007 6.45352 29.3567 6.17619C29.2181 5.89352 29.0234 5.67752 28.7727 5.52819C28.5221 5.37885 28.2314 5.30419 27.9007 5.30419ZM35.077 4.34419V5.24019H32.701V6.75219H34.605V7.61619H32.701V9.99219H31.573V4.34419H35.077ZM39.3427 4.34419V5.24019H36.9667V6.75219H38.8707V7.61619H36.9667V9.99219H35.8387V4.34419H39.3427Z" fill="white"/>
</svg>
