<svg width="26" height="36" viewBox="0 0 26 36" fill="none" xmlns="http://www.w3.org/2000/svg">
<path fill-rule="evenodd" clip-rule="evenodd" d="M10.0944 14.3833H9.52843C9.07181 13.806 8.80857 13.1084 8.7738 12.3833V10.9287C8.92211 10.2085 8.92211 9.46716 8.7738 8.74691L8.39648 7.656V6.56509C8.39648 6.56509 8.551 6.02255 9.05679 6H9.62276C9.62276 6 10.3163 6.04218 10.2831 6.56509V7.656C10.2831 7.656 9.93895 9.47073 10.4717 11.1105V12.3833C10.4717 12.3833 10.6064 14.0456 10.0944 14.3833Z" fill="#2F3567"/>
<path d="M10.0943 14.3809H9.52832V15.6536H10.0943V14.3809Z" fill="#FF6F3F"/>
<path d="M9.90545 15.4717H9.7168V16.7444H9.90545V15.4717Z" fill="#FF6F3F"/>
<path fill-rule="evenodd" clip-rule="evenodd" d="M17.0739 13.8392H16.5079C16.0513 13.262 15.788 12.5643 15.7533 11.8392V10.3847C15.7533 10.3847 16.0291 9.73195 15.7533 8.20286L15.376 7.11195V6.02104C15.376 6.02104 15.4362 5.49813 15.942 5.47559H16.5079C16.5079 5.47559 17.2958 5.49813 17.2626 6.02104V7.11195C17.2626 7.11195 16.9184 8.92668 17.4512 10.5665V11.8392C17.4512 11.8392 17.5859 13.5016 17.0739 13.8392Z" fill="#2F3567"/>
<path d="M17.0738 13.8389H16.5078V15.1116H17.0738V13.8389Z" fill="#FF6F3F"/>
<path d="M16.8849 14.9287H16.6963V16.2014H16.8849V14.9287Z" fill="#FF6F3F"/>
<path fill-rule="evenodd" clip-rule="evenodd" d="M13.3016 12.7476H12.7356C12.4855 12.2205 12.3433 11.652 12.3168 11.073V9.93847C12.3168 9.93847 12.5318 9.42938 12.3168 8.23665L12.0225 7.38574V6.53483C12.0333 6.42554 12.0833 6.32331 12.1639 6.24568C12.2444 6.16804 12.3505 6.11985 12.4639 6.10938H12.9054C12.9054 6.10938 13.5198 6.12756 13.494 6.53483V7.38574C13.494 7.38574 13.2261 8.80065 13.6411 10.0803V11.0734C13.6411 11.0734 13.701 12.4841 13.3016 12.7476Z" fill="#2F3567"/>
<path fill-rule="evenodd" clip-rule="evenodd" d="M12.7344 12.749H13.3003V13.6586H12.7344V12.749Z" fill="#FF6F3F"/>
<path d="M13.2011 13.4824H13.0547V14.4711H13.2011V13.4824Z" fill="#FF6F3F"/>
<path fill-rule="evenodd" clip-rule="evenodd" d="M21.4133 9.8372L23.2999 9.10992V6.74629C23.2999 6.74629 23.7417 0.213015 15.3763 0.564469H8.39591L5.7547 0.746287C5.7547 0.746287 0.365306 0.722106 0.472275 4.9281L1.79288 30.7463C1.79288 30.7463 2.10096 35.7401 6.69799 35.4736C6.69799 35.4736 15.0429 35.7037 21.036 33.2917C21.036 33.2917 24.2117 31.9946 24.2432 28.5645L24.0545 21.1099C24.0545 21.1099 24.1362 18.0674 21.036 19.2917L17.2628 20.5645L16.8855 22.5645C16.8855 22.5645 18.6274 21.5946 19.5267 21.4736C19.5267 21.4736 22.3628 20.9401 22.1679 23.1099C22.1679 23.1099 22.5609 25.8977 20.6587 26.9281C20.6587 26.9281 18.5048 28.6554 13.4897 29.1099C13.4897 29.1099 13.5683 28.1401 12.9237 27.6554C12.9237 27.6554 12.8765 26.019 14.8103 25.6554V23.6554C14.8103 23.6554 11.9648 23.3826 13.1124 20.5645L11.6031 19.2917L10.8485 19.8372C10.8485 19.8372 9.63785 20.2614 9.15054 19.4736L8.58457 18.019H6.50933C6.50933 18.019 6.39934 19.7765 5.18873 19.8372C4.85193 19.8901 4.50706 19.8685 4.18021 19.774C3.85336 19.6795 3.5531 19.5146 3.30215 19.2917L2.73617 6.01901C2.73617 6.01901 2.59468 3.17047 6.50933 3.10992H16.3195C16.3195 3.10992 20.8002 2.74629 21.2247 6.74629L21.4133 9.8372Z" fill="#FF6F3F"/>
<path d="M7.83085 27.6528C9.39374 27.6528 10.6607 26.4317 10.6607 24.9255C10.6607 23.4193 9.39374 22.1982 7.83085 22.1982C6.26795 22.1982 5.00098 23.4193 5.00098 24.9255C5.00098 26.4317 6.26795 27.6528 7.83085 27.6528Z" fill="white"/>
<path d="M14.0557 33.0629C14.759 33.0629 15.3291 32.5135 15.3291 31.8357C15.3291 31.1579 14.759 30.6084 14.0557 30.6084C13.3524 30.6084 12.7822 31.1579 12.7822 31.8357C12.7822 32.5135 13.3524 33.0629 14.0557 33.0629Z" fill="white"/>
<path d="M14.7148 1.65234H9.4324C9.27611 1.65234 9.14941 1.77452 9.14941 1.92522C9.14941 2.07593 9.27611 2.1981 9.4324 2.1981H14.7148C14.8711 2.1981 14.9978 2.07593 14.9978 1.92522C14.9978 1.77452 14.8711 1.65234 14.7148 1.65234Z" fill="white"/>
</svg>
