<svg width="47" height="15" viewBox="0 0 47 15" fill="none" xmlns="http://www.w3.org/2000/svg">
<path fill-rule="evenodd" clip-rule="evenodd" d="M8.12576 0.0398407L44.6674 0.00165727C45.2221 0.00210154 45.4323 0.00107774 45.4323 0.00107774C45.4323 0.00107774 46.7605 0.460645 46.7615 1.81456L47.0095 13.9993L46.3944 13.9997C46.3944 13.9997 45.4711 14.002 44.9167 14.0007L8.37506 14.0389C8.2263 14.0411 8.07855 14.0174 7.94055 13.9692C7.80254 13.921 7.67708 13.8493 7.57159 13.7584L0.331933 7.79071C0.122619 7.60883 0.00499711 7.36243 0.00482234 7.10549C0.00464757 6.84854 0.121934 6.60198 0.331001 6.41981L7.32987 0.324562C7.43372 0.233244 7.55771 0.160974 7.69444 0.112059C7.83117 0.0631443 7.97786 0.0385838 8.12576 0.0398407Z" fill="#2C3567"/>
</svg>
