<svg width="124" height="124" viewBox="0 0 124 124" fill="none" xmlns="http://www.w3.org/2000/svg">
<g clip-path="url(#clip0_7312_5446)">
<g style="mix-blend-mode:multiply" opacity="0.1">
<path d="M62 124C96.2417 124 124 96.2417 124 62C124 27.7583 96.2417 0 62 0C27.7583 0 0 27.7583 0 62C0 96.2417 27.7583 124 62 124Z" fill="#FF6F3F"/>
</g>
<g style="mix-blend-mode:multiply" opacity="0.15">
<path d="M62.0001 119.694C93.8639 119.694 119.695 93.8629 119.695 61.9991C119.695 30.1354 93.8639 4.30469 62.0001 4.30469C30.1363 4.30469 4.30566 30.1354 4.30566 61.9991C4.30566 93.8629 30.1363 119.694 62.0001 119.694Z" fill="#FF6F3F"/>
</g>
<g style="mix-blend-mode:multiply">
<path d="M62.0002 115.389C91.4861 115.389 115.389 91.4861 115.389 62.0002C115.389 32.5143 91.4861 8.61133 62.0002 8.61133C32.5143 8.61133 8.61133 32.5143 8.61133 62.0002C8.61133 91.4861 32.5143 115.389 62.0002 115.389Z" fill="#FF6F3F"/>
</g>
<path d="M89.5947 42.1575C89.3338 41.8964 89.0238 41.6893 88.6828 41.548C88.3418 41.4067 87.9758 41.334 87.6073 41.334C87.2378 41.334 86.8727 41.4067 86.5317 41.548C86.1907 41.6893 85.8807 41.8964 85.6198 42.1575L51.9515 75.8257L39.0089 62.8832C38.4817 62.3563 37.7668 62.0604 37.0214 62.0607C36.2761 62.0608 35.5613 62.3572 35.0344 62.8844C34.5075 63.4117 34.2117 64.1266 34.2119 64.8719C34.2122 65.6173 34.5085 66.332 35.0357 66.859L49.9649 81.7881C50.492 82.315 51.2068 82.6111 51.9522 82.6111C52.6975 82.6111 53.4123 82.315 53.9394 81.7881L89.5947 46.1307C90.1208 45.6038 90.4171 44.8892 90.4171 44.144C90.4171 43.3989 90.1208 42.6844 89.5947 42.1575Z" fill="white"/>
</g>
<defs>
<clipPath id="clip0_7312_5446">
<rect width="124" height="124" fill="white"/>
</clipPath>
</defs>
</svg>
